<svg width="400" height="181" viewBox="0 0 400 181" fill="none" xmlns="http://www.w3.org/2000/svg">
<path d="M0 7.821C0 4.187 1.501 2.37 4.503 2.37H130.824C133.668 2.37 135.09 4.029 135.09 7.347L134.853 34.839C134.853 39.105 132.878 41.238 128.928 41.238H59.25C55.616 41.238 53.799 42.739 53.799 45.741V68.019C53.799 71.179 55.221 72.759 58.065 72.759H101.436C104.596 72.759 106.176 74.339 106.176 77.499V106.413C106.176 109.099 104.754 110.442 101.91 110.442H57.591C55.063 110.442 53.799 111.627 53.799 113.997V171.351C53.799 175.933 51.192 178.224 45.978 178.224H6.399C3.871 178.224 2.133 177.75 1.185 176.802C0.395 175.854 0 174.353 0 172.299V7.821Z" fill="currentColor"/>
<path d="M211.151 7.821C211.151 4.187 212.652 2.37 215.654 2.37H341.975C344.819 2.37 346.241 4.029 346.241 7.347L346.004 34.839C346.004 39.105 344.029 41.238 340.079 41.238H270.401C266.767 41.238 264.95 42.739 264.95 45.741V68.019C264.95 71.179 266.372 72.759 269.216 72.759H312.587C315.747 72.759 317.327 74.339 317.327 77.499V106.413C317.327 109.099 315.905 110.442 313.061 110.442H268.742C266.214 110.442 264.95 111.627 264.95 113.997V171.351C264.95 175.933 262.343 178.224 257.129 178.224H217.550C215.022 178.224 213.284 177.75 212.336 176.802C211.546 175.854 211.151 174.353 211.151 172.299V7.821Z" fill="#FA6E43"/>
</svg>
