<svg width="1306" height="181" viewBox="0 0 1306 181" fill="none" xmlns="http://www.w3.org/2000/svg">
<path d="M0 7.821C0 4.187 1.501 2.37 4.503 2.37H130.824C133.668 2.37 135.09 4.029 135.09 7.347L134.853 34.839C134.853 39.105 132.878 41.238 128.928 41.238H59.25C55.616 41.238 53.799 42.739 53.799 45.741V68.019C53.799 71.179 55.221 72.759 58.065 72.759H101.436C104.596 72.759 106.176 74.339 106.176 77.499V106.413C106.176 109.099 104.754 110.442 101.91 110.442H57.591C55.063 110.442 53.799 111.627 53.799 113.997V171.351C53.799 175.933 51.192 178.224 45.978 178.224H6.399C3.871 178.224 2.133 177.75 1.185 176.802C0.395 175.854 0 174.353 0 172.299V7.821Z" fill="white"/>
<path d="M298.927 108.783C298.927 126.953 295.767 141.331 289.447 151.917C283.127 162.345 274.279 169.771 262.903 174.195C251.527 178.461 238.255 180.594 223.087 180.594C204.127 180.594 189.117 177.671 178.057 171.825C166.997 165.979 159.097 157.368 154.357 145.992C149.617 134.458 147.247 120.475 147.247 104.043V7.821C147.247 4.187 148.748 2.37 151.75 2.37H196.78C199.624 2.37 201.046 4.029 201.046 7.347V109.731C201.046 121.739 203.337 130.271 207.919 135.327C212.659 140.383 219.058 142.911 227.116 142.911C232.014 142.911 236.517 141.963 240.625 140.067C244.891 138.013 248.288 134.537 250.816 129.639C253.344 124.583 254.608 117.71 254.608 109.02V7.821C254.608 4.187 256.109 2.37 259.111 2.37H294.661C297.505 2.37 298.927 4.029 298.927 7.347V108.783Z" fill="white"/>
<path d="M316.569 7.821C316.569 4.187 318.07 2.37 321.072 2.37H366.102C368.946 2.37 370.368 4.029 370.368 7.347V136.038C370.368 138.25 371.316 139.356 373.212 139.356H444.549C448.183 139.356 450 140.857 450 143.859V173.01C450 174.432 449.526 175.696 448.578 176.802C447.63 177.75 446.129 178.224 444.075 178.224H322.968C320.44 178.224 318.702 177.75 317.754 176.802C316.964 175.854 316.569 174.353 316.569 172.299V7.821Z" fill="white"/>
<path d="M463.86 7.821C463.86 4.187 465.361 2.37 468.363 2.37H513.393C516.237 2.37 517.659 4.029 517.659 7.347V136.038C517.659 138.25 518.607 139.356 520.503 139.356H591.84C595.474 139.356 597.291 140.857 597.291 143.859V173.01C597.291 174.432 596.817 175.696 595.869 176.802C594.921 177.75 593.42 178.224 591.366 178.224H470.259C467.731 178.224 465.993 177.75 465.045 176.802C464.255 175.854 463.86 174.353 463.86 172.299V7.821Z" fill="white"/>
<path d="M611.151 7.821C611.151 4.187 612.652 2.37 615.654 2.37H741.975C744.819 2.37 746.241 4.029 746.241 7.347L746.004 34.839C746.004 39.105 744.029 41.238 740.079 41.238H670.401C666.767 41.238 664.95 42.739 664.95 45.741V68.019C664.95 71.179 666.372 72.759 669.216 72.759H712.587C715.747 72.759 717.327 74.339 717.327 77.499V106.413C717.327 109.099 715.905 110.442 713.061 110.442H668.742C666.214 110.442 664.95 111.627 664.95 113.997V171.351C664.95 175.933 662.343 178.224 657.129 178.224H617.55C615.022 178.224 613.284 177.75 612.336 176.802C611.546 175.854 611.151 174.353 611.151 172.299V7.821Z" fill="#FA6E43"/>
<path d="M760.294 7.821C760.294 4.187 761.795 2.37 764.797 2.37H809.827C812.671 2.37 814.093 4.029 814.093 7.347V136.038C814.093 138.25 815.041 139.356 816.937 139.356H888.274C891.908 139.356 893.725 140.857 893.725 143.859V173.01C893.725 174.432 893.251 175.696 892.303 176.802C891.355 177.75 889.854 178.224 887.8 178.224H766.693C764.165 178.224 762.427 177.75 761.479 176.802C760.689 175.854 760.294 174.353 760.294 172.299V7.821Z" fill="#FA6E43"/>
<path d="M973.578 180.594C956.198 180.594 941.109 176.96 928.311 169.692C915.513 162.266 905.638 151.838 898.686 138.408C891.734 124.82 888.258 108.941 888.258 90.771C888.258 72.443 891.813 56.485 898.923 42.897C906.033 29.309 915.987 18.802 928.785 11.376C941.583 3.792 956.514 0 973.578 0C990.642 0 1005.49 3.792 1018.13 11.376C1030.93 18.802 1040.81 29.309 1047.76 42.897C1054.87 56.485 1058.42 72.443 1058.42 90.771C1058.42 108.941 1054.95 124.741 1048 138.171C1041.04 151.601 1031.17 162.029 1018.37 169.455C1005.73 176.881 990.8 180.594 973.578 180.594ZM973.578 143.622C983.848 143.622 991.116 139.672 995.382 131.772C999.806 123.872 1002.02 110.442 1002.02 91.482C1002.02 71.89 999.806 57.828 995.382 49.296C990.958 40.764 983.69 36.498 973.578 36.498C963.308 36.498 955.882 40.764 951.3 49.296C946.876 57.828 944.664 71.89 944.664 91.482C944.664 110.442 946.797 123.872 951.063 131.772C955.487 139.672 962.992 143.622 973.578 143.622Z" fill="#FA6E43"/>
<path d="M1298.36 2.37C1301.52 2.37 1303.65 3.318 1304.76 5.214C1306.02 6.952 1306.26 9.164 1305.47 11.85L1257.36 172.299C1255.93 176.249 1253.09 178.224 1248.82 178.224H1216.12C1211.54 178.224 1208.69 176.249 1207.59 172.299L1182.94 88.875C1182.46 86.979 1181.91 86.031 1181.28 86.031C1180.65 85.873 1179.94 86.979 1179.15 89.349L1154.73 172.299C1153.63 176.249 1150.78 178.224 1146.2 178.224H1112.31C1108.05 178.224 1105.2 176.249 1103.78 172.299L1055.43 11.85C1054.8 9.164 1055.04 6.952 1056.14 5.214C1057.41 3.318 1059.54 2.37 1062.54 2.37H1101.65C1104.17 2.37 1105.91 2.844 1106.86 3.79199C1107.97 4.582 1108.76 5.76701 1109.23 7.347L1134.35 95.274C1134.83 97.012 1135.3 97.96 1135.77 98.118C1136.41 98.118 1136.88 97.486 1137.2 96.222L1162.08 7.347C1162.4 5.76701 1163.11 4.582 1164.21 3.79199C1165.32 2.844 1167.14 2.37 1169.67 2.37H1202.85C1205.37 2.37 1207.11 2.844 1208.06 3.79199C1209.17 4.582 1209.96 5.76701 1210.43 7.347L1236.5 97.407C1236.82 98.355 1237.29 98.908 1237.92 99.066C1238.55 99.224 1238.95 98.829 1239.11 97.881L1263.28 7.347C1263.6 5.76701 1264.31 4.582 1265.41 3.79199C1266.52 2.844 1268.34 2.37 1270.86 2.37H1298.36Z" fill="#FA6E43"/>
</svg>
