<svg width="1306" height="181" viewBox="0 0 1306 181" fill="none" xmlns="http://www.w3.org/2000/svg">
<path d="M1298.36 2.36914C1301.52 2.36914 1303.65 3.31714 1304.76 5.21315C1306.02 6.95114 1306.26 9.16314 1305.47 11.8491L1257.36 172.298C1255.93 176.248 1253.09 178.223 1248.82 178.223H1216.12C1211.54 178.223 1208.69 176.248 1207.59 172.298L1182.94 88.8742C1182.46 86.9781 1181.91 86.0301 1181.28 86.0301C1180.65 85.8721 1179.94 86.9781 1179.15 89.3481L1154.73 172.298C1153.63 176.248 1150.78 178.223 1146.2 178.223H1112.31C1108.05 178.223 1105.2 176.248 1103.78 172.298L1055.43 11.8491C1054.8 9.16314 1055.04 6.95114 1056.14 5.21315C1057.41 3.31714 1059.54 2.36914 1062.54 2.36914H1101.65C1104.17 2.36914 1105.91 2.84314 1106.86 3.79114C1107.97 4.58115 1108.76 5.76615 1109.23 7.34615L1134.35 95.2731C1134.83 97.0111 1135.3 97.9591 1135.77 98.1171C1136.41 98.1171 1136.88 97.4851 1137.2 96.2211L1162.08 7.34615C1162.4 5.76615 1163.11 4.58115 1164.21 3.79114C1165.32 2.84314 1167.14 2.36914 1169.67 2.36914H1202.85C1205.37 2.36914 1207.11 2.84314 1208.06 3.79114C1209.17 4.58115 1209.96 5.76615 1210.43 7.34615L1236.5 97.4061C1236.82 98.3541 1237.29 98.9071 1237.92 99.0651C1238.55 99.2232 1238.95 98.8282 1239.11 97.8801L1263.28 7.34615C1263.6 5.76615 1264.31 4.58115 1265.41 3.79114C1266.52 2.84314 1268.34 2.36914 1270.86 2.36914H1298.36Z" fill="#FA6E43"/>
<path d="M973.579 180.594C956.199 180.594 941.11 176.96 928.312 169.692C915.514 162.266 905.639 151.838 898.687 138.408C891.735 124.82 888.259 108.941 888.259 90.771C888.259 72.443 891.814 56.485 898.924 42.897C906.034 29.309 915.988 18.802 928.786 11.376C941.584 3.792 956.515 0 973.579 0C990.643 0 1005.49 3.792 1018.13 11.376C1030.93 18.802 1040.81 29.309 1047.76 42.897C1054.87 56.485 1058.42 72.443 1058.42 90.771C1058.42 108.941 1054.95 124.741 1048 138.171C1041.04 151.601 1031.17 162.029 1018.37 169.455C1005.73 176.881 990.801 180.594 973.579 180.594ZM973.579 143.622C983.849 143.622 991.117 139.672 995.383 131.772C999.807 123.872 1002.02 110.442 1002.02 91.482C1002.02 71.89 999.807 57.828 995.383 49.296C990.959 40.764 983.691 36.498 973.579 36.498C963.309 36.498 955.883 40.764 951.301 49.296C946.877 57.828 944.665 71.89 944.665 91.482C944.665 110.442 946.798 123.872 951.064 131.772C955.488 139.672 962.993 143.622 973.579 143.622Z" fill="#FA6E43"/>
<path d="M760.294 7.82014C760.294 4.18614 761.795 2.36914 764.797 2.36914H809.827C812.671 2.36914 814.093 4.02815 814.093 7.34615V136.037C814.093 138.249 815.041 139.355 816.937 139.355H888.274C891.908 139.355 893.725 140.856 893.725 143.858V173.009C893.725 174.431 893.251 175.695 892.303 176.801C891.355 177.749 889.854 178.223 887.8 178.223H766.693C764.165 178.223 762.427 177.749 761.479 176.801C760.689 175.853 760.294 174.352 760.294 172.298V7.82014Z" fill="#FA6E43"/>
<path d="M611.151 7.82014C611.151 4.18614 612.652 2.36914 615.654 2.36914H741.975C744.819 2.36914 746.241 4.02815 746.241 7.34615L746.004 34.8382C746.004 39.1042 744.029 41.2372 740.079 41.2372H670.401C666.767 41.2372 664.95 42.7382 664.95 45.7402V68.0181C664.95 71.1781 666.372 72.7581 669.216 72.7581H712.587C715.747 72.7581 717.327 74.3382 717.327 77.4982V106.412C717.327 109.098 715.905 110.441 713.061 110.441H668.742C666.214 110.441 664.95 111.626 664.95 113.996V171.35C664.95 175.932 662.343 178.223 657.129 178.223H617.55C615.022 178.223 613.284 177.749 612.336 176.801C611.546 175.853 611.151 174.352 611.151 172.298V7.82014Z" fill="#FA6E43"/>
<path d="M463.861 7.82014C463.861 4.18614 465.362 2.36914 468.364 2.36914H513.394C516.238 2.36914 517.66 4.02815 517.66 7.34615V136.037C517.66 138.249 518.608 139.355 520.504 139.355H591.841C595.475 139.355 597.292 140.856 597.292 143.858V173.009C597.292 174.431 596.818 175.695 595.87 176.801C594.922 177.749 593.421 178.223 591.367 178.223H470.26C467.732 178.223 465.994 177.749 465.046 176.801C464.256 175.853 463.861 174.352 463.861 172.298V7.82014Z" fill="black"/>
<path d="M316.569 7.82014C316.569 4.18614 318.07 2.36914 321.072 2.36914H366.102C368.946 2.36914 370.368 4.02815 370.368 7.34615V136.037C370.368 138.249 371.316 139.355 373.212 139.355H444.549C448.183 139.355 450 140.856 450 143.858V173.009C450 174.431 449.526 175.695 448.578 176.801C447.63 177.749 446.129 178.223 444.075 178.223H322.968C320.44 178.223 318.702 177.749 317.754 176.801C316.964 175.853 316.569 174.352 316.569 172.298V7.82014Z" fill="black"/>
<path d="M298.927 108.782C298.927 126.952 295.767 141.33 289.447 151.916C283.127 162.344 274.279 169.77 262.903 174.194C251.527 178.46 238.255 180.593 223.087 180.593C204.127 180.593 189.117 177.67 178.057 171.824C166.997 165.978 159.097 157.367 154.357 145.991C149.617 134.457 147.247 120.474 147.247 104.042V7.82014C147.247 4.18614 148.748 2.36914 151.75 2.36914H196.78C199.624 2.36914 201.046 4.02815 201.046 7.34615V109.73C201.046 121.738 203.337 130.27 207.919 135.326C212.659 140.382 219.058 142.91 227.116 142.91C232.014 142.91 236.517 141.962 240.625 140.066C244.891 138.012 248.288 134.536 250.816 129.638C253.344 124.582 254.608 117.709 254.608 109.019V7.82014C254.608 4.18614 256.109 2.36914 259.111 2.36914H294.661C297.505 2.36914 298.927 4.02815 298.927 7.34615V108.782Z" fill="black"/>
<path d="M0 7.82014C0 4.18614 1.501 2.36914 4.503 2.36914H130.824C133.668 2.36914 135.09 4.02815 135.09 7.34615L134.853 34.8382C134.853 39.1042 132.878 41.2372 128.928 41.2372H59.25C55.616 41.2372 53.799 42.7382 53.799 45.7402V68.0181C53.799 71.1781 55.221 72.7581 58.065 72.7581H101.436C104.596 72.7581 106.176 74.3382 106.176 77.4982V106.412C106.176 109.098 104.754 110.441 101.91 110.441H57.591C55.063 110.441 53.799 111.626 53.799 113.996V171.35C53.799 175.932 51.192 178.223 45.978 178.223H6.399C3.871 178.223 2.133 177.749 1.185 176.801C0.395 175.853 0 174.352 0 172.298V7.82014Z" fill="black"/>
</svg>
